<svg width="800" height="766" viewBox="0 0 800 766" fill="none" xmlns="http://www.w3.org/2000/svg">
<path d="M438.632 24.4852L528.861 207.314C535.136 220.03 547.267 228.841 561.302 230.877L763.071 260.196C798.415 265.336 812.516 308.757 786.95 333.672L640.951 475.983C630.805 485.879 626.166 500.146 628.569 514.114L663.029 715.065C669.07 750.259 632.123 777.093 600.517 760.489L420.058 665.62C407.509 659.028 392.507 659.028 379.958 665.62L199.499 760.489C167.893 777.109 130.947 750.259 136.988 715.065L171.448 514.114C173.851 500.146 169.212 485.879 159.065 475.983L13.0663 333.672C-12.499 308.741 1.60199 265.32 36.9462 260.196L238.715 230.877C252.749 228.841 264.881 220.03 271.156 207.314L361.385 24.4852C377.171 -7.53819 422.829 -7.53819 438.632 24.4852Z" fill="#AFA9A9" fill-opacity="0.937255"/>
</svg>
